<?xml version="1.0" encoding="UTF-8"?>
<svg width="341px" height="60px" viewBox="0 0 341 60" version="1.1" xmlns="http://www.w3.org/2000/svg" xmlns:xlink="http://www.w3.org/1999/xlink">
    <!-- Generator: Sketch 48 (47235) - http://www.bohemiancoding.com/sketch -->
    <title>Commander</title>
    <desc>Created with Sketch.</desc>
    <defs>
        <linearGradient x1="0%" y1="0%" x2="100%" y2="100%" id="linearGradient-1">
            <stop stop-color="#FAD961" offset="0%"></stop>
            <stop stop-color="#F76B1C" offset="100%"></stop>
        </linearGradient>
    </defs>
    <g id="Artboard" stroke="none" stroke-width="1" fill="none" fill-rule="evenodd" transform="translate(-205.000000, -241.000000)">
        <g id="Commander" transform="translate(205.000000, 241.000000)">
            <path d="M31.4298872,7.41525726 C53.1185028,21.4490673 46.4869951,39.0976467 46.4869951,39.0976467 C46.4869951,39.0976467 48.8259634,41.7555653 49.9954476,45.0513843 C51.1649318,48.3472033 51.1520457,52.3872396 50.9394122,52.4935563 C50.7267788,52.5998731 47.985177,47.9219364 43.191176,47.9219364 C38.3971751,47.9219364 35.9616359,52.4935563 27.456298,52.4935563 C8.30569969,52.4935563 0,36.7852579 0,36.7852579 C0,36.7852579 8.42560189,42.8187327 17.2498923,42.6060992 C26.0741828,42.3934657 28.5194655,39.8418639 28.5194655,39.8418639 C28.5194655,39.8418639 24.5738293,36.5402933 17.7814753,29.9012484 C10.9891212,23.2622035 4.59819914,14.1132121 4.59819914,14.1132121 C4.59819914,14.1132121 14.8372228,22.2281425 18.121438,24.6152148 C21.4056531,27.0022871 24.6898682,29.1655714 24.6898682,29.1655714 C24.6898682,29.1655714 21.5091473,25.7341556 19.2699097,22.9741033 C17.0306721,20.2140509 11.296154,11.8805605 11.296154,11.8805605 C11.296154,11.8805605 20.0912771,19.8212011 24.0927382,22.9741026 C28.0941994,26.127004 35.7490049,31.4428412 35.7490049,31.4428412 C35.7490049,31.4428412 40.3604936,20.9174836 31.4298872,7.41525726 Z" id="countour" fill="url(#linearGradient-1)"></path>
            <path d="M60.6840884,20.1451772 L68.5319406,20.1451772 L68.5319406,21.8966292 L62.5702675,21.8966292 L62.5702675,49.8524973 L68.5319406,49.8524973 L68.5319406,51.6039493 L60.6840884,51.6039493 L60.6840884,20.1451772 Z M95.716029,47.578125 C92.9972654,48.5937551 90.5597898,49.1015625 88.403529,49.1015625 C85.5597648,49.1015625 82.9426034,48.3398514 80.5519665,46.8164062 C78.1613295,45.2929611 76.3019731,43.0273588 74.9738415,40.0195312 C73.6457099,37.0117037 72.981654,33.609394 72.981654,29.8125 C72.981654,26.0468562 73.6378974,22.6640775 74.950404,19.6640625 C76.2629106,16.6640475 78.1144545,14.3906327 80.5050915,12.84375 C82.8957284,11.2968673 85.5285146,10.5234375 88.403529,10.5234375 C90.5597898,10.5234375 92.9972654,11.0312449 95.716029,12.046875 L95.716029,16.359375 C93.2003914,14.9062427 90.7004164,14.1796875 88.216029,14.1796875 C86.3410196,14.1796875 84.626193,14.8203061 83.0714977,16.1015625 C81.5168025,17.3828189 80.2629088,19.2617064 79.309779,21.7382812 C78.3566492,24.2148561 77.8800915,26.9062355 77.8800915,29.8125 C77.8800915,32.7656398 78.3722741,35.492175 79.356654,37.9921875 C80.3410339,40.4922 81.5988338,42.363275 83.1300915,43.6054688 C84.6613492,44.8476625 86.3566447,45.46875 88.216029,45.46875 C90.6847913,45.46875 93.1847663,44.7421948 95.716029,43.2890625 L95.716029,47.578125 Z M113.434779,48.7265625 C109.68476,48.7265625 106.68479,47.4179818 104.434779,44.8007812 C102.184768,42.1835807 101.059779,38.8828324 101.059779,34.8984375 C101.059779,30.9140426 102.184768,27.6172005 104.434779,25.0078125 C106.68479,22.3984245 109.68476,21.09375 113.434779,21.09375 C117.169173,21.09375 120.16133,22.3984245 122.411341,25.0078125 C124.661353,27.6172005 125.786341,30.9140426 125.786341,34.8984375 C125.786341,38.8828324 124.661353,42.1835807 122.411341,44.8007812 C120.16133,47.4179818 117.169173,48.7265625 113.434779,48.7265625 Z M113.434779,45.09375 C115.762916,45.09375 117.61446,44.1875091 118.989466,42.375 C120.364473,40.5624909 121.051966,38.0703284 121.051966,34.8984375 C121.051966,31.7421717 120.364473,29.2578216 118.989466,27.4453125 C117.61446,25.6328034 115.762916,24.7265625 113.434779,24.7265625 C111.091017,24.7265625 109.231661,25.6328034 107.856654,27.4453125 C106.481647,29.2578216 105.794154,31.7421717 105.794154,34.8984375 C105.794154,38.0703284 106.481647,40.5624909 107.856654,42.375 C109.231661,44.1875091 111.091017,45.09375 113.434779,45.09375 Z M129.489466,48 L129.489466,21.8203125 L133.309779,21.8203125 L133.309779,27.8203125 C134.51291,25.2734248 135.633993,23.5156298 136.67306,22.546875 C137.712128,21.5781202 138.762899,21.09375 139.825404,21.09375 C141.091035,21.09375 142.110556,21.5898388 142.883998,22.5820312 C143.657439,23.5742237 144.044154,24.9843659 144.044154,26.8125 L144.044154,28.21875 C144.559782,26.624992 145.180869,25.3320362 145.907435,24.3398438 C146.634001,23.3476513 147.3879,22.5585967 148.169154,21.9726562 C148.950408,21.3867158 149.848836,21.09375 150.864466,21.09375 C151.989472,21.09375 152.9504,21.5703077 153.747279,22.5234375 C154.544158,23.4765673 154.942591,25.3749858 154.942591,28.21875 L154.942591,48 L151.122279,48 L151.122279,30.1171875 C151.122279,28.6484302 151.075404,27.6445339 150.981654,27.1054688 C150.887904,26.5664036 150.700405,26.1562514 150.419154,25.875 C150.137903,25.5937486 149.833218,25.453125 149.505091,25.453125 C148.692587,25.453125 147.821502,26.0742125 146.89181,27.3164062 C145.962118,28.5586 145.012909,30.6171731 144.044154,33.4921875 L144.044154,48 L140.387904,48 L140.387904,30.140625 C140.387904,27.8281134 140.161344,26.468752 139.708216,26.0625 C139.255089,25.656248 138.848843,25.453125 138.489466,25.453125 C137.692588,25.453125 136.837127,26.1484305 135.92306,27.5390625 C135.008993,28.9296945 134.137908,30.7109266 133.309779,32.8828125 L133.309779,48 L129.489466,48 Z M158.294154,48 L158.294154,21.8203125 L162.114466,21.8203125 L162.114466,27.8203125 C163.317598,25.2734248 164.43868,23.5156298 165.477748,22.546875 C166.516815,21.5781202 167.567586,21.09375 168.630091,21.09375 C169.895723,21.09375 170.915244,21.5898388 171.688685,22.5820312 C172.462127,23.5742237 172.848841,24.9843659 172.848841,26.8125 L172.848841,28.21875 C173.364469,26.624992 173.985557,25.3320362 174.712123,24.3398438 C175.438689,23.3476513 176.192588,22.5585967 176.973841,21.9726562 C177.755095,21.3867158 178.653524,21.09375 179.669154,21.09375 C180.79416,21.09375 181.755088,21.5703077 182.551966,22.5234375 C183.348845,23.4765673 183.747279,25.3749858 183.747279,28.21875 L183.747279,48 L179.926966,48 L179.926966,30.1171875 C179.926966,28.6484302 179.880092,27.6445339 179.786341,27.1054688 C179.692591,26.5664036 179.505093,26.1562514 179.223841,25.875 C178.94259,25.5937486 178.637906,25.453125 178.309779,25.453125 C177.497275,25.453125 176.62619,26.0742125 175.696498,27.3164062 C174.766806,28.5586 173.817596,30.6171731 172.848841,33.4921875 L172.848841,48 L169.192591,48 L169.192591,30.140625 C169.192591,27.8281134 168.966031,26.468752 168.512904,26.0625 C168.059777,25.656248 167.653531,25.453125 167.294154,25.453125 C166.497275,25.453125 165.641815,26.1484305 164.727748,27.5390625 C163.813681,28.9296945 162.942596,30.7109266 162.114466,32.8828125 L162.114466,48 L158.294154,48 Z M206.270716,42.1171875 C204.942585,44.3046984 203.344945,45.9531195 201.477748,47.0625 C199.610551,48.1718805 197.895724,48.7265625 196.333216,48.7265625 C194.145706,48.7265625 192.180881,47.7812595 190.438685,45.890625 C188.696489,43.9999905 187.825404,41.1328317 187.825404,37.2890625 C187.825404,34.2577973 188.403523,31.5507932 189.559779,29.1679688 C190.716035,26.7851443 192.262894,24.9023507 194.200404,23.5195312 C196.137914,22.1367118 198.536327,21.4453125 201.395716,21.4453125 C202.223846,21.4453125 203.473833,21.5312491 205.145716,21.703125 C205.395718,21.7343752 205.770714,21.7734373 206.270716,21.8203125 L210.653529,21.8203125 L210.653529,40.3125 C210.653529,43.4687658 210.981651,46.0312402 211.637904,48 L207.091029,48 C206.747277,46.5624928 206.473843,44.6015749 206.270716,42.1171875 Z M206.270716,36.9375 L206.270716,25.7109375 C204.723834,25.3046855 203.286348,25.1015625 201.958216,25.1015625 C199.270703,25.1015625 197.032444,26.1406146 195.243373,28.21875 C193.454301,30.2968854 192.559779,33.1249821 192.559779,36.703125 C192.559779,39.296888 193.048055,41.2538996 194.024623,42.5742188 C195.00119,43.8945379 196.11446,44.5546875 197.364466,44.5546875 C198.723848,44.5546875 200.223833,43.8671944 201.864466,42.4921875 C203.5051,41.1171806 204.973835,39.2656366 206.270716,36.9375 Z M217.872279,48 L217.872279,21.8203125 L222.231654,21.8203125 L222.231654,27.5390625 C223.48166,25.5234274 224.989458,23.9453182 226.755091,22.8046875 C228.520725,21.6640568 230.286333,21.09375 232.051966,21.09375 C233.598849,21.09375 235.005085,21.5039021 236.270716,22.3242188 C237.536348,23.1445354 238.423058,24.2187434 238.930873,25.546875 C239.438688,26.8750066 239.692591,29.4843555 239.692591,33.375 L239.692591,48 L235.333216,48 L235.333216,32.8359375 C235.333216,30.3202999 235.212124,28.6601603 234.969935,27.8554688 C234.727747,27.0507772 234.282438,26.3906276 233.633998,25.875 C232.985557,25.3593724 232.278533,25.1015625 231.512904,25.1015625 C229.981646,25.1015625 228.337132,25.8281177 226.57931,27.28125 C224.821489,28.7343823 223.372285,30.5546766 222.231654,32.7421875 L222.231654,48 L217.872279,48 Z M264.161341,42.1171875 C262.83321,44.3046984 261.23557,45.9531195 259.368373,47.0625 C257.501176,48.1718805 255.786349,48.7265625 254.223841,48.7265625 C252.036331,48.7265625 250.071506,47.7812595 248.32931,45.890625 C246.587114,43.9999905 245.716029,41.1328317 245.716029,37.2890625 C245.716029,34.2577973 246.294148,31.5507932 247.450404,29.1679688 C248.60666,26.7851443 250.153519,24.9023507 252.091029,23.5195312 C254.028539,22.1367118 256.426952,21.4453125 259.286341,21.4453125 C260.114471,21.4453125 261.364458,21.5312491 263.036341,21.703125 C263.286343,21.7343752 263.661339,21.7734373 264.161341,21.8203125 L264.161341,10.171875 L268.544154,10.171875 L268.544154,48 L264.161341,48 L264.161341,42.1171875 Z M264.161341,36.9375 L264.161341,25.7109375 C262.614459,25.3046855 261.176973,25.1015625 259.848841,25.1015625 C257.161328,25.1015625 254.923069,26.1406146 253.133998,28.21875 C251.344926,30.2968854 250.450404,33.1249821 250.450404,36.703125 C250.450404,39.296888 250.93868,41.2538996 251.915248,42.5742188 C252.891815,43.8945379 254.005085,44.5546875 255.255091,44.5546875 C256.614473,44.5546875 258.114458,43.8671944 259.755091,42.4921875 C261.395725,41.1171806 262.86446,39.2656366 264.161341,36.9375 Z M297.255091,46.265625 C293.770699,47.9218833 290.473857,48.75 287.364466,48.75 C285.00508,48.75 282.895726,48.1640684 281.036341,46.9921875 C279.176957,45.8203066 277.688691,44.1445421 276.571498,41.9648438 C275.454305,39.7851454 274.895716,37.4531374 274.895716,34.96875 C274.895716,32.578113 275.426961,30.281261 276.489466,28.078125 C277.551972,25.874989 279.036332,24.1601624 280.942591,22.9335938 C282.848851,21.7070251 284.97383,21.09375 287.317591,21.09375 C290.426982,21.09375 292.923051,22.2031139 294.805873,24.421875 C296.688695,26.6406361 297.630091,30.0624769 297.630091,34.6875 L297.630091,35.625 L279.583216,35.625 C279.583216,37.4375091 279.962119,39.0937425 280.719935,40.59375 C281.477752,42.0937575 282.473835,43.2187463 283.708216,43.96875 C284.942598,44.7187538 286.348834,45.09375 287.926966,45.09375 C290.739481,45.09375 293.848824,44.1562594 297.255091,42.28125 L297.255091,46.265625 Z M279.841029,32.3671875 L292.895716,32.3671875 L292.895716,31.734375 C292.895716,29.5937393 292.372284,27.8906313 291.325404,26.625 C290.278524,25.3593687 288.8801,24.7265625 287.130091,24.7265625 C285.364458,24.7265625 283.837129,25.3710873 282.54806,26.6601562 C281.258991,27.9492252 280.356657,29.8515499 279.841029,32.3671875 Z M306.512904,48 L306.512904,21.8203125 L310.872279,21.8203125 L310.872279,27.5390625 C312.231661,25.3828017 313.790239,23.7695366 315.54806,22.6992188 C317.305882,21.6289009 319.262893,21.09375 321.419154,21.09375 C322.997287,21.09375 324.575396,21.3359351 326.153529,21.8203125 L326.153529,31.265625 L321.958216,31.265625 L321.958216,25.2890625 C321.223838,25.1640619 320.645719,25.1015625 320.223841,25.1015625 C318.598833,25.1015625 317.005099,25.7421811 315.442591,27.0234375 C313.880084,28.3046939 312.356661,30.2265497 310.872279,32.7890625 L310.872279,48 L306.512904,48 Z M331.142305,20.1451772 L338.990157,20.1451772 L338.990157,51.6039493 L331.142305,51.6039493 L331.142305,49.8524973 L337.103978,49.8524973 L337.103978,21.8966292 L331.142305,21.8966292 L331.142305,20.1451772 Z" id="[Commander]" fill="#F89134"></path>
            <rect id="Path" fill-opacity="0.845363451" fill="#FFFFFF" x="272" y="0" width="69" height="60"></rect>
        </g>
    </g>
</svg>