<?xml version="1.0" encoding="UTF-8"?>
<svg width="345px" height="51px" viewBox="0 0 345 51" version="1.1" xmlns="http://www.w3.org/2000/svg" xmlns:xlink="http://www.w3.org/1999/xlink">
    <!-- Generator: Sketch 48 (47235) - http://www.bohemiancoding.com/sketch -->
    <title>Group</title>
    <desc>Created with Sketch.</desc>
    <defs>
        <linearGradient x1="0%" y1="0%" x2="100%" y2="100%" id="linearGradient-1">
            <stop stop-color="#FAD961" offset="0%"></stop>
            <stop stop-color="#F76B1C" offset="100%"></stop>
        </linearGradient>
    </defs>
    <g id="Artboard" stroke="none" stroke-width="1" fill="none" fill-rule="evenodd" transform="translate(-199.000000, -242.000000)">
        <g id="Group" transform="translate(199.000000, 239.000000)">
            <path d="M34.5082097,3.84573259 C58.321063,19.2540495 51.0400487,38.6311752 51.0400487,38.6311752 C51.0400487,38.6311752 53.6081015,41.5494171 54.8921279,45.1680369 C56.1761543,48.7866568 56.1620062,53.2223844 55.9285469,53.3391141 C55.6950875,53.4558437 52.6849664,48.3197381 47.4214288,48.3197381 C42.1578913,48.3197381 39.4838093,53.3391141 30.1454372,53.3391141 C9.11918089,53.3391141 0,36.0923053 0,36.0923053 C0,36.0923053 9.25082661,42.7167138 18.9393903,42.4832545 C28.6279541,42.2497951 31.3127339,39.4482829 31.3127339,39.4482829 C31.3127339,39.4482829 26.9806522,35.8233482 19.5230379,28.5340585 C12.0654235,21.2447688 5.04855837,11.199702 5.04855837,11.199702 C5.04855837,11.199702 16.2904179,20.1094292 19.8962973,22.7302974 C23.5021768,25.3511656 27.1080563,27.7263274 27.1080563,27.7263274 C27.1080563,27.7263274 23.6158075,23.9588301 21.1572533,20.9284513 C18.6986991,17.8980724 12.4025278,8.74837887 12.4025278,8.74837887 C12.4025278,8.74837887 22.0590675,17.4667459 26.4524418,20.9284505 C30.8458162,24.3901551 39.2503526,30.2266388 39.2503526,30.2266388 C39.2503526,30.2266388 44.3135022,18.6704011 34.5082097,3.84573259 Z" id="countour" fill="url(#linearGradient-1)"></path>
            <text id="[Commander]" font-family="PingFangTC-Light, PingFang TC" font-size="33.6817688" font-weight="300" fill="#F89134">
                <tspan x="64.6248641" y="37.7631992">[</tspan>
                <tspan x="75.8408931" y="37.7631992" font-family="Monaco" font-size="48" font-weight="normal">Command</tspan>
                <tspan x="277.473706" y="37.7631992" font-family="Monaco" font-size="48" font-weight="normal" fill-opacity="0.15">er</tspan>
                <tspan x="335.083081" y="37.7631992" fill-opacity="0.147050498">]</tspan>
            </text>
        </g>
    </g>
</svg>