<?xml version="1.0" encoding="UTF-8"?>
<svg width="173px" height="25px" viewBox="0 0 173 25" version="1.1" xmlns="http://www.w3.org/2000/svg" xmlns:xlink="http://www.w3.org/1999/xlink">
    <!-- Generator: Sketch 48 (47235) - http://www.bohemiancoding.com/sketch -->
    <title>Group</title>
    <desc>Created with Sketch.</desc>
    <defs>
        <linearGradient x1="0%" y1="0%" x2="100%" y2="100%" id="linearGradient-1">
            <stop stop-color="#FAD961" offset="0%"></stop>
            <stop stop-color="#F76B1C" offset="100%"></stop>
        </linearGradient>
    </defs>
    <g id="Artboard" stroke="none" stroke-width="1" fill="none" fill-rule="evenodd" transform="translate(-286.000000, -256.000000)">
        <g id="Group" transform="translate(286.000000, 254.000000)">
            <path d="M17.2541048,1.9228663 C29.1605315,9.62702473 25.5200244,19.3155876 25.5200244,19.3155876 C25.5200244,19.3155876 26.8040508,20.7747085 27.446064,22.5840185 C28.0880772,24.3933284 28.0810031,26.6111922 27.9642734,26.669557 C27.8475438,26.7279219 26.3424832,24.1598691 23.7107144,24.1598691 C21.0789457,24.1598691 19.7419046,26.669557 15.0727186,26.669557 C4.55959045,26.669557 0,18.0461526 0,18.0461526 C0,18.0461526 4.6254133,21.3583569 9.46969517,21.2416272 C14.313977,21.1248976 15.656367,19.7241415 15.656367,19.7241415 C15.656367,19.7241415 13.4903261,17.9116741 9.76151893,14.2670292 C6.03271175,10.6223844 2.52427918,5.599851 2.52427918,5.599851 C2.52427918,5.599851 8.14520894,10.0547146 9.94814867,11.3651487 C11.7510884,12.6755828 13.5540281,13.8631637 13.5540281,13.8631637 C13.5540281,13.8631637 11.8079037,11.9794151 10.5786266,10.4642256 C9.34934955,8.94903621 6.20126389,4.37418944 6.20126389,4.37418944 C6.20126389,4.37418944 11.0295337,8.73337297 13.2262209,10.4642253 C15.4229081,12.1950775 19.6251763,15.1133194 19.6251763,15.1133194 C19.6251763,15.1133194 22.1567511,9.33520055 17.2541048,1.9228663 Z" id="countour" fill="url(#linearGradient-1)"></path>
            <text id="[Commander]" font-family="PingFangTC-Light, PingFang TC" font-size="16.8408844" font-weight="300" fill="#F89134">
                <tspan x="32.312432" y="18.8815996">[</tspan>
                <tspan x="37.9204465" y="18.8815996" font-family="Monaco" font-size="24" font-weight="normal">Command</tspan>
                <tspan x="138.736853" y="18.8815996" font-family="Monaco" font-size="24" font-weight="normal" fill-opacity="0.15">er</tspan>
                <tspan x="167.54154" y="18.8815996" fill-opacity="0.147050498">]</tspan>
            </text>
        </g>
    </g>
</svg>