<?xml version="1.0" encoding="UTF-8"?>
<svg width="113px" height="80px" viewBox="0 0 113 80" version="1.1" xmlns="http://www.w3.org/2000/svg" xmlns:xlink="http://www.w3.org/1999/xlink">
    <!-- Generator: Sketch 48 (47235) - http://www.bohemiancoding.com/sketch -->
    <title>Group</title>
    <desc>Created with Sketch.</desc>
    <defs>
        <linearGradient x1="0%" y1="0%" x2="100%" y2="100%" id="linearGradient-1">
            <stop stop-color="#FAD961" offset="0%"></stop>
            <stop stop-color="#F76B1C" offset="100%"></stop>
        </linearGradient>
    </defs>
    <g id="Artboard" stroke="none" stroke-width="1" fill="none" fill-rule="evenodd" transform="translate(-243.000000, -219.000000)">
        <g id="Group" transform="translate(243.000000, 219.000000)">
            <path d="M55.5515283,2.78834e-09 C93.7241996,24.6999638 82.0525296,55.7620394 82.0525296,55.7620394 C82.0525296,55.7620394 86.1691902,60.4400628 88.2275206,66.2408119 C90.2858509,72.041561 90.263171,79.1521566 89.8889292,79.3392775 C89.5146873,79.5263985 84.6893787,71.2930772 76.2517806,71.2930772 C67.8141824,71.2930772 63.5275539,79.3392775 48.5578818,79.3392775 C14.8522037,79.3392775 0.233901172,51.6921597 0.233901172,51.6921597 C0.233901172,51.6921597 15.0632355,62.3112722 30.5942746,61.9370303 C46.1253138,61.5627884 50.4290912,57.071886 50.4290912,57.071886 C50.4290912,57.071886 43.4846428,51.2610139 31.529878,39.5760783 C19.5751132,27.8911426 8.32688172,11.7886191 8.32688172,11.7886191 C8.32688172,11.7886191 26.3478976,26.0711614 32.1282234,30.2724866 C37.9085492,34.4738118 43.6888751,38.2812628 43.6888751,38.2812628 C43.6888751,38.2812628 38.0907024,32.241859 34.1495711,27.3840768 C30.2084398,22.5262945 20.1155008,7.85907938 20.1155008,7.85907938 C20.1155008,7.85907938 35.5952045,21.8348661 42.6379067,27.3840756 C49.6806089,32.933285 63.1533164,42.2893319 63.1533164,42.2893319 C63.1533164,42.2893319 71.2696871,23.7643591 55.5515283,2.78834e-09 Z" id="countour" fill="url(#linearGradient-1)"></path>
            <text id="[]" font-family="PingFangTC-Light, PingFang TC" font-size="33.6817688" font-weight="300" fill="#F89134">
                <tspan x="92.6248641" y="75.7631992">[</tspan>
                <tspan x="103.840893" y="75.7631992" fill-opacity="0.147050498">]</tspan>
            </text>
        </g>
    </g>
</svg>